<svg xmlns="http://www.w3.org/2000/svg" width="136.148" height="131.205" viewBox="0 0 136.148 131.205"><g transform="translate(-897 -2465.047)"><path d="M58.395-2.435c36.661,0,76.386,10.07,76.386,46.731S124.262,128.77,87.6,128.77-1.367,120.049-1.367,83.388,21.734-2.435,58.395-2.435Z" transform="translate(898.367 2467.482)" fill="#ede7e4"/><g transform="translate(934.746 2500.189)"><g transform="translate(0 0)"><path d="M57.578,197.849l-3.441,3.441a1.164,1.164,0,0,0-.341.823,9.165,9.165,0,0,1-2.7,6.524L32.712,227.018a1.749,1.749,0,0,1-2.595-2.34l10.644-10.644a1.164,1.164,0,0,0,0-1.645l0,0,0,0a1.164,1.164,0,0,0-1.645,0L26.275,225.23a1.749,1.749,0,0,1-2.6-2.34l12.97-12.97A1.163,1.163,0,0,0,35,208.275l-15.1,15.1a1.749,1.749,0,0,1-2.474-2.474L32.54,205.8a1.163,1.163,0,0,0-1.645-1.645L17.409,217.632a1.749,1.749,0,0,1-2.34-2.6l4.414-4.414a1.163,1.163,0,0,0-1.645-1.645l-2.258,2.258-4.485-4.485a22.513,22.513,0,0,1-5.858-10.222,1.164,1.164,0,0,0-.3-.529l-2.947-2.947A1.163,1.163,0,0,0,.341,194.7l2.727,2.727A24.846,24.846,0,0,0,9.449,208.4l4.485,4.485-.511.511a4.074,4.074,0,0,0,1.676,6.774,4.076,4.076,0,0,0,6.091,5.173,4.076,4.076,0,0,0,6.44,1.8,4.08,4.08,0,0,0,6.728,1.524l1.488-1.488,1.041,1.041a4.075,4.075,0,0,0,6.926-2.372,4.109,4.109,0,0,0,.691.06,4.073,4.073,0,0,0,4.076-4.074c0-.015,0-.031,0-.046h.044A4.073,4.073,0,0,0,52.7,217.71a4.127,4.127,0,0,0-.042-.585,4.076,4.076,0,0,0,2.449-6.935l-1.231-1.231a11.45,11.45,0,0,0,2.237-6.355l3.111-3.111a1.163,1.163,0,0,0-1.645-1.645ZM41.006,226.571a1.752,1.752,0,0,1-2.474,0l-1.03-1.03,2.474-2.474.589.589.441.441a1.75,1.75,0,0,1,0,2.474Zm5.247-4.741a1.75,1.75,0,0,1-2.987,1.237l-.615-.615h0l-1.03-1.03,2.474-2.474,1.645,1.645A1.737,1.737,0,0,1,46.253,221.829Zm3.607-2.882a1.752,1.752,0,0,1-2.474,0L45.741,217.3l2.474-2.474,1.645,1.645a1.75,1.75,0,0,1,0,2.474Zm3.6-4.638a1.749,1.749,0,0,1-2.474,0l-1.127-1.127,2.474-2.474,1.127,1.127a1.749,1.749,0,0,1,0,2.474Z" transform="translate(0 -170.293)" fill="#b46063"/><path d="M13.8,15.46a1.163,1.163,0,0,0,.823.341h6a19.021,19.021,0,0,1,11.956,4.244l9.453,7.677a7.619,7.619,0,0,1-7.948.463L27.66,24.7a1.163,1.163,0,0,0-.891-.09,21.587,21.587,0,0,1-12.43.032l-.114-.034a1.163,1.163,0,1,0-.661,2.231l.114.034a23.9,23.9,0,0,0,13.3.1l1.676.908-3.41,3.41a1.163,1.163,0,0,0,1.645,1.645l3.9-3.9,2.2,1.192a9.811,9.811,0,0,0,4.691,1.2,10.036,10.036,0,0,0,1.443-.1,9.82,9.82,0,0,0,5.569-2.794A1.163,1.163,0,0,0,44.6,26.8l-9.389-7.625a17.852,17.852,0,0,1,9.308-2.682,1.163,1.163,0,0,0,.815-.341L59.223,2.262A1.163,1.163,0,0,0,57.578.617L44.018,14.176A20.171,20.171,0,0,0,33.29,17.647a21.362,21.362,0,0,0-12.66-4.173H15.108L1.985.351A1.163,1.163,0,0,0,.34,2Z" transform="translate(0.001 -0.01)" fill="#b46063"/><path d="M182.541,298.14a1.164,1.164,0,1,0,.824-.341A1.171,1.171,0,0,0,182.541,298.14Z" transform="translate(-161.004 -263.155)" fill="#b46063"/></g></g></g></svg>