<svg xmlns="http://www.w3.org/2000/svg" width="27.125" height="27.125" viewBox="0 0 27.125 27.125"><path d="M24.4,13.465l-1.148-1.18a.247.247,0,0,0-.183-.078h0a.237.237,0,0,0-.183.078L14.933,20.3l-2.9-2.9a.252.252,0,0,0-.365,0l-1.161,1.161a.26.26,0,0,0,0,.372l3.651,3.651a1.155,1.155,0,0,0,.763.372,1.21,1.21,0,0,0,.756-.359h.007l8.718-8.763A.279.279,0,0,0,24.4,13.465Z" transform="translate(-3.888 -4.017)" fill="#b46063"/><path d="M16.937,5.2a11.732,11.732,0,1,1-8.3,3.436,11.659,11.659,0,0,1,8.3-3.436m0-1.826A13.562,13.562,0,1,0,30.5,16.937,13.56,13.56,0,0,0,16.937,3.375Z" transform="translate(-3.375 -3.375)" fill="#b46063"/></svg>