<svg xmlns="http://www.w3.org/2000/svg" width="132.202" height="127.403" viewBox="0 0 132.202 127.403"><path d="M56.663-2.435c35.6,0,74.172,9.778,74.172,45.376s-10.214,82.026-45.813,82.026S-1.367,116.5-1.367,80.9,21.064-2.435,56.663-2.435Z" transform="translate(1.367 2.435)" fill="#ede7e4"/><g transform="translate(28.293 25.484)"><g transform="translate(37.156 35.507)"><path d="M254.109,240.852a1.477,1.477,0,1,0,0,2.088A1.477,1.477,0,0,0,254.109,240.852Z" transform="translate(-251.587 -240.418)" fill="#b46063"/></g><g transform="translate(45.872 14.978)"><g transform="translate(0)"><path d="M323.205,103.58a7.384,7.384,0,1,0,0,10.443A7.381,7.381,0,0,0,323.205,103.58Zm-2.089,8.355a4.431,4.431,0,1,1,0-6.266A4.437,4.437,0,0,1,321.117,111.934Z" transform="translate(-310.603 -101.415)" fill="#b46063"/></g></g><g transform="translate(14.18 0)"><g transform="translate(0 0)"><path d="M157.021.432a1.472,1.472,0,0,0-1.1-.432,65.609,65.609,0,0,0-17.736,3.672,49.447,49.447,0,0,0-18.762,11.379c-1.093,1.093-2.156,2.252-3.174,3.455-4.822-2.838-8.685-1.948-11.128-.641-5.624,3.01-9.105,11.182-9.105,17.028a1.477,1.477,0,0,0,2.522,1.044,9.4,9.4,0,0,1,7.819-2.623l.517.517a51.956,51.956,0,0,0-2.439,7.173,4.181,4.181,0,0,0,.179,2.565,13.985,13.985,0,0,0-3.988,2.812c-3.8,3.8-4.574,13.067-4.6,13.459A1.477,1.477,0,0,0,97.5,61.435q.058,0,.116,0c.393-.031,9.658-.8,13.459-4.6a13.987,13.987,0,0,0,2.811-3.987,4.171,4.171,0,0,0,2.567.178,51.954,51.954,0,0,0,7.172-2.439l.517.517a9.4,9.4,0,0,1-2.623,7.819,1.477,1.477,0,0,0,1.044,2.521c5.846,0,14.018-3.481,17.028-9.105,1.307-2.442,2.2-6.306-.641-11.128,1.2-1.017,2.362-2.08,3.455-3.174A49.451,49.451,0,0,0,153.78,19.266,65.611,65.611,0,0,0,157.452,1.53,1.477,1.477,0,0,0,157.021.432ZM99.32,31.718c.917-4.44,3.582-9.312,7.2-11.247,2.416-1.293,5.057-1.166,7.865.371a59.723,59.723,0,0,0-6.205,10.115,1.557,1.557,0,0,0-.782-.459A12.623,12.623,0,0,0,99.32,31.718Zm9.662,23.02c-2.031,2.031-6.794,3.1-9.805,3.539.438-3.011,1.509-7.775,3.539-9.805a10.643,10.643,0,0,1,3.781-2.485l4.97,4.97A10.642,10.642,0,0,1,108.982,54.737Zm6.733-4.582a1.386,1.386,0,0,1-1.29-.419l-2.893-2.892-3.814-3.814a1.387,1.387,0,0,1-.42-1.291,47.946,47.946,0,0,1,1.844-5.641l12.213,12.213A47.928,47.928,0,0,1,115.715,50.155Zm21.268.781c-1.935,3.615-6.807,6.28-11.247,7.2a12.569,12.569,0,0,0,1.21-8.111,1.543,1.543,0,0,0-.449-.746,59.734,59.734,0,0,0,10.115-6.205C138.149,45.879,138.276,48.52,136.983,50.936Zm3.33-15a53.606,53.606,0,0,1-4.259,3.821,56.744,56.744,0,0,1-11.773,7.3L110.394,33.174a56.735,56.735,0,0,1,7.3-11.773,53.606,53.606,0,0,1,3.821-4.26A46.052,46.052,0,0,1,138.3,6.777l12.375,12.375A46.048,46.048,0,0,1,140.313,35.94Zm11.427-19.9L141.417,5.714a66.4,66.4,0,0,1,12.959-2.636A66.416,66.416,0,0,1,151.739,16.037Z" transform="translate(-96.018 0)" fill="#b46063"/></g></g><g transform="translate(28.802 60.57)"><g transform="translate(0)"><path d="M201.718,410.554a1.477,1.477,0,0,0-2.089,0l-4.177,4.178a1.477,1.477,0,0,0,2.089,2.088l4.177-4.178A1.477,1.477,0,0,0,201.718,410.554Z" transform="translate(-195.021 -410.121)" fill="#b46063"/></g></g><g transform="translate(7.915 39.684)"><path d="M60.291,269.134a1.477,1.477,0,0,0-2.089,0l-4.178,4.177a1.477,1.477,0,1,0,2.088,2.089l4.178-4.176A1.477,1.477,0,0,0,60.291,269.134Z" transform="translate(-53.592 -268.701)" fill="#b46063"/></g><g transform="translate(12.531 62.66)"><g transform="translate(0 0)"><path d="M97.377,424.7a1.477,1.477,0,0,0-2.089,0l-10,10a1.477,1.477,0,1,0,2.088,2.088l10-10A1.476,1.476,0,0,0,97.377,424.7Z" transform="translate(-84.851 -424.271)" fill="#b46063"/></g></g><g transform="translate(0.716 62.66)"><g transform="translate(0 0)"><path d="M17.377,424.7a1.477,1.477,0,0,0-2.089,0l-10,10A1.477,1.477,0,1,0,7.372,436.8l10-10A1.476,1.476,0,0,0,17.377,424.7Z" transform="translate(-4.851 -424.271)" fill="#b46063"/></g></g><g transform="translate(0 50.127)"><g transform="translate(0 0)"><path d="M12.525,339.843a1.477,1.477,0,0,0-2.089,0l-10,10a1.477,1.477,0,1,0,2.089,2.089l10-10A1.477,1.477,0,0,0,12.525,339.843Z" transform="translate(-0.001 -339.41)" fill="#b46063"/></g></g><g transform="translate(41.333 29.241)"><path d="M284.481,198.423a1.477,1.477,0,0,0-2.089,0l-2.088,2.088a1.477,1.477,0,1,0,2.089,2.089l2.088-2.088A1.477,1.477,0,0,0,284.481,198.423Z" transform="translate(-279.871 -197.99)" fill="#b46063"/></g></g></svg>