<svg xmlns="http://www.w3.org/2000/svg" width="116.968" height="189.218" viewBox="0 0 116.968 189.218"><g transform="translate(-901.516 -5121.782)"><g transform="translate(895.234 5198.279)"><path d="M49.976-2.435c31.5,0,65.625,8.651,65.625,40.147s-9.037,72.574-40.534,72.574S-1.367,102.793-1.367,71.3,18.479-2.435,49.976-2.435Z" transform="translate(7.648 2.435)" fill="#b46063"/></g><g transform="translate(-1107.483 -75.218)"><path d="M150.85,131.24c-7.44-11.06-17.39-18.25-27.5-25.51-13.5-9.69-18-23.81-15.2-39.75,3.1-17.67,13.8-29.63,31.11-34.41,17.67-4.88,33.14.06,44.69,14.3,11.1,13.69,13.5,29.2,6.21,45.65a33,33,0,0,1-12.39,14.75C167.42,112.83,158.08,120.38,150.85,131.24Zm.66-11.54c2.9-2.76,6.23-6.34,10-9.41s8.33-5.54,12.11-8.77c3.46-3,7-6.21,9.37-10,9-14.29,5.44-34.27-7.66-46a36.79,36.79,0,0,0-47.2-1.67c-19.13,15-19.31,44.11-.5,57.59,8.05,5.79,15.78,12.05,23.88,18.26Z" transform="translate(1916.644 5167.257)" fill="#e5d9d1"/><path d="M2051.631,5203.611l-18.347,16.054-5.963,22.016,5.963,19.264,13.3,14.219s15.595,12.843,17.429,13.76,11.467-3.211,11.467-3.211,13.76-10.091,15.136-12.384,9.632-11.925,11.008-14.677,8.256-12.843,7.8-16.971-10.55-27.062-10.55-27.062l-26.6-14.678Z" transform="translate(-0.383 -0.941)" fill="#e5d9d1"/><text transform="translate(2068 5258.558)" fill="#b46063" font-size="40" font-family="Gotham-Bold, Gotham" font-weight="700"><tspan x="-12.46" y="0">2</tspan></text></g><g transform="translate(470.439 4880.877)"><path d="M491.484,411.448c-7.738-.08-15.364-.921-22.538-4.03a27.146,27.146,0,0,1-6.235-3.694c-5-4.042-5.082-9.566.046-13.44a8.626,8.626,0,0,0,3.5-6.4c1.335-9.455,2.878-18.881,4.29-28.326a4.639,4.639,0,0,1,3.3-3.723c2.831-1.133,5.7-2.185,8.56-3.233a44.455,44.455,0,0,1,6.677-2.272,14.865,14.865,0,0,1,9.541,1.37,72.96,72.96,0,0,0,8.607,3.078c3.266,1.106,5.218,3.048,5.708,6.742,1.305,9.858,2.91,19.677,4.456,29.5a3.479,3.479,0,0,0,1.093,1.721,48.174,48.174,0,0,1,3.749,3.395c2.52,3.024,2.664,6.7.021,9.585a23.118,23.118,0,0,1-6.391,4.88c-6.928,3.547-14.5,4.522-22.18,4.839C492.955,411.474,492.219,411.448,491.484,411.448ZM472.013,359.5c.033-.066-.045.027-.061.13-1.849,12-3.65,24.009-5.579,36a3.7,3.7,0,0,0,1.943,4.246,25.121,25.121,0,0,0,5.366,2.445,65.261,65.261,0,0,0,35.952-.071,25.035,25.035,0,0,0,5.729-2.83,3.12,3.12,0,0,0,1.394-3.507c-1.466-9.2-2.822-18.421-4.225-27.633-.462-3.037-.953-6.07-1.386-8.817A48.48,48.48,0,0,1,472.013,359.5Zm19.654,2.1c5.488-.215,11.046-.474,16.136-3,1.1-.544,2.566-1.807,2.552-2.72-.014-.933-1.482-2.189-2.591-2.691-2.562-1.159-5.288-1.963-7.962-2.867a1.339,1.339,0,0,0-1.031.15c-4.21,2.845-8.762,2.626-13.079.779a5.041,5.041,0,0,0-4.57-.106c-.822.371-1.688.643-2.528.975-1.575.622-3.2,1.146-4.7,1.912-1.745.89-1.879,2.27-.357,3.468a12.281,12.281,0,0,0,3.081,1.729C481.431,361.122,486.507,361.441,491.667,361.6Zm-26.545,29.41c-4.969,2.987-5.546,7.6-1.321,11.023a28.669,28.669,0,0,0,6.846,3.951,47.841,47.841,0,0,0,15.674,3.318c9.167.6,18.223-.007,26.787-3.612a23.856,23.856,0,0,0,7.153-4.659c3.254-3.131,2.041-7.933-2.252-9.87.231,1.515.376,2.974.686,4.4a4.832,4.832,0,0,1-2.3,5.548,29.28,29.28,0,0,1-6.85,3.209,68.556,68.556,0,0,1-32.871.851,24.177,24.177,0,0,1-9.977-4.009c-1.791-1.346-2.812-3.03-2.3-5.41C464.713,394.27,464.861,392.752,465.122,391.013Zm31.808-41.76c-2.608-1.68-8.292-1.67-10.751.019C488.569,350.945,494.542,350.934,496.93,349.253Z" transform="translate(0 0)" fill="#e5d9d1" stroke="#e5d9d1" stroke-width="0.5"/><path d="M506.272,366.147c-5.16-.162-10.235-.48-15.049-2.37a12.281,12.281,0,0,1-3.081-1.729c-1.523-1.2-1.388-2.578.357-3.468,1.5-.766,3.127-1.29,4.7-1.912.84-.332,1.706-.6,2.528-.975a5.041,5.041,0,0,1,4.57.106c4.317,1.848,8.87,2.067,13.079-.779a1.339,1.339,0,0,1,1.031-.15c2.674.9,5.4,1.708,7.962,2.867,1.109.5,2.577,1.758,2.591,2.691.014.912-1.454,2.176-2.552,2.72C517.318,365.672,511.76,365.932,506.272,366.147Zm11.866-3.692a2.523,2.523,0,0,0-.311-.672c-1.644-1.7-3.283-3.407-4.989-5.045a1.192,1.192,0,0,0-1.164.044,1.388,1.388,0,0,0-.09,1.291c1.6,1.744,3.262,3.425,4.957,5.073a1.239,1.239,0,0,0,1.063.066C517.845,363.123,517.966,362.717,518.138,362.455Z" transform="translate(-14.605 -4.544)" fill="#e5d9d1" stroke="#e5d9d1" stroke-width="0.5"/><path d="M562.871,422.978l-.908.958c-.377-.4-1-.759-1.093-1.219-.7-3.6-1.313-7.216-1.938-10.83-.98-5.672-1.943-11.346-2.927-17.017-.138-.8-.418-1.746.717-1.83.36-.026,1.052.893,1.154,1.459,1.667,9.273,3.265,18.559,4.879,27.841C562.776,422.451,562.8,422.562,562.871,422.978Z" transform="translate(-50.29 -24.37)" fill="#e5d9d1" stroke="#e5d9d1" stroke-width="0.5"/><path d="M556.2,384.158c-.214.249-.536.922-.854.92a1.669,1.669,0,0,1-1.124-.912,3.435,3.435,0,0,1-.308-1.8c.051-.448.484-.852.747-1.276.38.319.9.567,1.1.974A9.218,9.218,0,0,1,556.2,384.158Z" transform="translate(-49.263 -18.172)" fill="#e5d9d1" stroke="#e5d9d1" stroke-width="0.5"/><path d="M544.414,364.379c-.172.262-.294.668-.534.758a1.239,1.239,0,0,1-1.063-.066c-1.695-1.648-3.362-3.329-4.957-5.073a1.388,1.388,0,0,1,.09-1.291,1.192,1.192,0,0,1,1.164-.044c1.706,1.637,3.345,3.345,4.989,5.045A2.524,2.524,0,0,1,544.414,364.379Z" transform="translate(-40.881 -6.468)" fill="#e5d9d1" stroke="#e5d9d1" stroke-width="0.5"/></g></g></svg>