<svg xmlns="http://www.w3.org/2000/svg" xmlns:xlink="http://www.w3.org/1999/xlink" width="116.968" height="189.218" viewBox="0 0 116.968 189.218"><defs><clipPath id="a"><path d="M0-140.49H64.825v67.149H0Z" transform="translate(0 140.49)" fill="#e5d9d1"/></clipPath></defs><g transform="translate(-445.693 -5121.489)"><g transform="translate(439.411 5197.986)"><path d="M49.976-2.435c31.5,0,65.625,8.651,65.625,40.147s-9.037,72.574-40.534,72.574S-1.367,102.793-1.367,71.3,18.479-2.435,49.976-2.435Z" transform="translate(7.648 2.435)" fill="#b46063"/></g><g transform="translate(-1563.307 -75.511)"><path d="M150.85,131.24c-7.44-11.06-17.39-18.25-27.5-25.51-13.5-9.69-18-23.81-15.2-39.75,3.1-17.67,13.8-29.63,31.11-34.41,17.67-4.88,33.14.06,44.69,14.3,11.1,13.69,13.5,29.2,6.21,45.65a33,33,0,0,1-12.39,14.75C167.42,112.83,158.08,120.38,150.85,131.24Zm.66-11.54c2.9-2.76,6.23-6.34,10-9.41s8.33-5.54,12.11-8.77c3.46-3,7-6.21,9.37-10,9-14.29,5.44-34.27-7.66-46a36.79,36.79,0,0,0-47.2-1.67c-19.13,15-19.31,44.11-.5,57.59,8.05,5.79,15.78,12.05,23.88,18.26Z" transform="translate(1916.644 5167.257)" fill="#e5d9d1"/><path d="M2051.631,5203.611l-18.347,16.054-5.963,22.016,5.963,19.264,13.3,14.219s15.595,12.843,17.429,13.76,11.467-3.211,11.467-3.211,13.76-10.091,15.136-12.384,9.632-11.925,11.008-14.677,8.256-12.843,7.8-16.971-10.55-27.062-10.55-27.062l-26.6-14.678Z" transform="translate(-0.383 -0.941)" fill="#e5d9d1"/><text transform="translate(2068 5258.558)" fill="#b46063" font-size="40" font-family="Gotham-Bold, Gotham" font-weight="700"><tspan x="-8.44" y="0">1</tspan></text></g><g transform="translate(471.766 5368.477)"><g transform="translate(0 -140.49)" clip-path="url(#a)"><g transform="translate(0 0)"><path d="M-50.351-66.079A10.123,10.123,0,0,0-42.1-71.63c1.35-2.614.015-4.692-2.924-4.543A9.892,9.892,0,0,0-53.6-70.806c-1.471,2.675-.163,4.728,3.253,4.728M-88.594-82.3l.288-.239a7.374,7.374,0,0,0-.321-.677c-3-4.991-3.293-10.289-1.7-15.756,3.84-13.2,19.2-23.279,32.81-21.407,6.993.961,12.763,3.885,15.467,11,.035.093.222.128.382.213-.726-7.221-4.942-12.334-11.909-14.365-7.025-2.048-13.831-1-20.349,1.944-9.344,4.219-16.441,10.729-19.615,20.765-1.868,5.908-1.272,11.556,2.863,16.49A27.626,27.626,0,0,0-88.594-82.3m41.9,17.637a35.086,35.086,0,0,1-4.78.452c-3.556-.158-5.432-2.967-4.388-6.343,1.416-4.579,7.6-8.325,12.322-7.463a4.356,4.356,0,0,1,3.735,5.54,28.757,28.757,0,0,1-2.015,4.51c3.431-2.861,6.271-6.173,7.656-10.522,1.994-6.259-1.34-11.169-7.909-11.737-6.249-.54-11.723,1.615-16.731,5.078-4.625,3.2-8.349,7.192-9.814,12.827-1.355,5.21,1.118,9.348,6.376,10.549,5.5,1.257,10.516-.367,15.549-2.89m10.141-26.043c-.293-.78-.473-1.3-.682-1.805-2.195-5.344-4.506-10.645-6.558-16.044a14.552,14.552,0,0,0-8.876-8.624,22.689,22.689,0,0,0-15.527-.29c-10.325,3.314-17.81,9.706-20.579,20.537-1.536,6.01-.176,11.4,4.587,15.788,4.169,3.841,8.141,7.9,12.206,11.85.281.273.619.487,1.062.83C-71.67-82.557-50.26-96.941-36.552-90.706m-59.9-6.88c.406-1.506.7-3.052,1.234-4.513,4.129-11.362,12.422-18.451,23.53-22.444,6.9-2.482,13.947-2.923,20.9-.038a17.749,17.749,0,0,1,11.1,18.569,8.08,8.08,0,0,0,.529,3.555c2.167,5.477,4.463,10.9,6.7,16.351,1.369,3.334.918,6.615-.424,9.822-4.163,9.939-17,17.7-27.75,16.779a12.571,12.571,0,0,1-8.167-3.87c-4.45-4.522-9.045-8.9-13.6-13.315a4.036,4.036,0,0,0-1.413-.849c-6.779-2.442-11.083-7.024-12.4-14.224a1.538,1.538,0,0,0-.242-.431Z" transform="translate(96.45 126.578)" fill="#e5d9d1"/></g><g transform="translate(27.466 36.269)"><path d="M-29.69-3.271l.322-.2c-.379-.673-.711-1.883-1.146-1.921C-31.843-5.505-31.549-4.2-31.65-3.4c-.269,2.115-.492,4.241-.6,6.37-.025.527.478,1.08.738,1.621.38-.445,1.021-.848,1.1-1.339.33-2.162.5-4.349.721-6.527M-34.584,19.38c-5.032,2.524-10.047,4.146-15.549,2.89-5.258-1.2-7.731-5.338-6.376-10.548,1.466-5.634,5.189-9.629,9.815-12.827,5.008-3.463,10.483-5.618,16.731-5.078,6.57.568,9.9,5.478,7.909,11.737-1.385,4.348-4.226,7.661-7.656,10.522a28.777,28.777,0,0,0,2.015-4.51,4.356,4.356,0,0,0-3.735-5.54c-4.722-.863-10.907,2.883-12.322,7.462-1.043,3.376.833,6.185,4.389,6.343a35.162,35.162,0,0,0,4.779-.452" transform="translate(56.874 6.266)" fill="#e5d9d1" stroke="#e5d9d1" stroke-width="0.5"/></g><g transform="translate(1.898 1.985)"><path d="M-6.507-46.194a27.627,27.627,0,0,1-2.085-2.031c-4.135-4.934-4.731-10.583-2.863-16.49C-8.281-74.751-1.185-81.261,8.159-85.48c6.518-2.943,13.324-3.992,20.349-1.945,6.968,2.031,11.184,7.145,11.909,14.365-.16-.086-.347-.12-.382-.213-2.7-7.117-8.474-10.041-15.467-11C10.956-86.147-4.4-76.068-8.241-62.868-9.832-57.4-9.538-52.1-6.54-47.111a7.326,7.326,0,0,1,.321.678l-.288.239" transform="translate(12.465 88.488)" fill="#e5d9d1" stroke="#e5d9d1" stroke-width="0.5"/></g><g transform="translate(42.329 10.368)"><path d="M-9.916-18.6c-.158.249-.3.747-.56.814a1.465,1.465,0,0,1-1.16-.271,3.357,3.357,0,0,1-.633-1.165q-3.2-6.934-6.394-13.871c-.117-.254-.335-.51-.331-.762a16.942,16.942,0,0,1,.195-1.776c.532.336,1.326.547,1.555,1.027,2.355,4.951,4.62,9.944,6.907,14.928.139.3.245.621.423,1.075" transform="translate(18.994 35.632)" fill="#e5d9d1"/></g><g transform="translate(50.765 29.26)"><path d="M-3.491-3.093c-.565.505-.851.943-1.237,1.065-.607.192-2.1-1.961-1.949-2.929.055-.359.577-.647.887-.967l2.3,2.831" transform="translate(6.687 5.924)" fill="#e5d9d1"/></g><g transform="translate(52.094 37.139)"><path d="M-2.792-2.321c-.226,2.178-.391,4.365-.721,6.527-.075.491-.715.895-1.1,1.339-.26-.541-.764-1.094-.738-1.621.1-2.128.326-4.254.6-6.37.1-.8-.192-2.109,1.136-1.993.435.038.767,1.247,1.146,1.921l-.322.2" transform="translate(5.348 4.446)" fill="#e5d9d1"/></g></g></g></g></svg>