<svg xmlns="http://www.w3.org/2000/svg" width="116.968" height="189.218" viewBox="0 0 116.968 189.218">
  <g id="Grupo_585" data-name="Grupo 585" transform="translate(-901.516 -5121.782)">
    <g id="Grupo_224" data-name="Grupo 224" transform="translate(895.234 5198.279)">
      <path id="Trazado_70" data-name="Trazado 70" d="M49.976-2.435c31.5,0,65.625,8.651,65.625,40.147s-9.037,72.574-40.534,72.574S-1.367,102.793-1.367,71.3,18.479-2.435,49.976-2.435Z" transform="translate(7.648 2.435)" fill="#b46063"/>
    </g>
    <g id="Grupo_577" data-name="Grupo 577" transform="translate(-1058.744 -77.17)">
      <path id="Trazado_417" data-name="Trazado 417" d="M24.218,170.792c.818-7.35,1.943-14.732,2.36-22.177a17.145,17.145,0,0,1,5.227-11.706,6.574,6.574,0,0,1,4.171-1.753q41.186-.148,82.371-.063c2.582,0,3.754,1.22,3.807,3.76a8.337,8.337,0,0,1-.058,2.746c-.407,1.088-1.019,2.461-1.933,2.9A2.5,2.5,0,0,0,118.5,146.9q-1.283,12.393-2.762,24.77a7.123,7.123,0,0,1-1.1,2.872c-.871,1.394-1.97,2.64-2.941,3.976a5.613,5.613,0,0,1-4.932,2.381c-11.215-.037-22.436,0-33.651,0H25.586c-3.976,0-4.821-.866-4.826-4.911C20.749,172.519,21.05,172.059,24.218,170.792ZM70.156,145.03a17.721,17.721,0,0,0,.09,1.843c.813,7.535,1.663,15.07,2.424,22.61.148,1.447.866,1.584,2.08,1.584,12.007-.037,24.014,0,36.022,0,.57,0,1.135-.09,1.732-.143.966-8.712,1.917-17.256,2.872-25.873Zm-42.648,25.9H69.581c-.966-8.712-1.917-17.277-2.867-25.873H30.391C29.43,153.716,28.479,162.222,27.508,170.935Zm39.169-29.379h52.079v-2.978H66.677Zm6.062,36.022a4.547,4.547,0,0,0-4.868-3.263c-13.924.143-27.843.074-41.766.084-.639,0-1.278.058-1.948.1v3.084ZM110.36,174.5H75.046c.993,2.2,2.35,3.258,4.879,3.216q12.931-.227,25.873,0c2.487.084,3.5-1.193,4.562-3.21ZM63.128,138.535c-.76-.042-1.283-.1-1.8-.1h-24.7c-2.244,0-3.168.8-3.881,3.115H63.128Z" transform="translate(1949.24 5174.257)" fill="#e5d9d1"/>
      <path id="Trazado_418" data-name="Trazado 418" d="M122.406,173.127c-.486-4.43-.956-8.644-1.436-13.021l3.21-.486c.491,4.34.972,8.554,1.473,12.989Z" transform="translate(1901.943 5162.666)" fill="#e5d9d1"/>
      <path id="Trazado_419" data-name="Trazado 419" d="M127.967,193.993l-3.2.232c-.143-1.056-.264-2-.417-3.142l3.168-.354C127.682,191.812,127.809,192.789,127.967,193.993Z" transform="translate(1900.348 5147.983)" fill="#e5d9d1"/>
      <path id="Trazado_420" data-name="Trazado 420" d="M40.47,185.152c.528-4.515.966-8.718,1.447-13.042l3.226.232c-.459,4.314-.913,8.564-1.389,13.01Z" transform="translate(1939.938 5156.771)" fill="#e5d9d1"/>
      <path id="Trazado_421" data-name="Trazado 421" d="M47.168,163.219,44,162.807l.359-3.237,3.242.385C47.437,161.054,47.311,162,47.168,163.219Z" transform="translate(1938.271 5162.689)" fill="#e5d9d1"/>
      <path id="Trazado_423" data-name="Trazado 423" d="M126.744,50.963c2.358,1.462,4.622.063,6.938-1.474a6.882,6.882,0,0,1,2.928-.877c5.279-.637,8.569,3.172,7.244,8.471a10.752,10.752,0,0,1-6.788,7.755,5.81,5.81,0,0,0-1.859,1.258,6.336,6.336,0,0,1-5.082,1.887,11.088,11.088,0,0,1-10.318-10.42C119.618,53.781,122.436,50.881,126.744,50.963ZM133.729,63.5l.464-.369a7.509,7.509,0,0,0-2.417-7.335,6.824,6.824,0,0,0-7.378-1.824c.464.668,1.419.987,1.678,1.6a11.206,11.206,0,0,0,6.195,6.163C132.891,62,133.241,62.9,133.729,63.5Zm-10.688-7.987-.6.295a7.777,7.777,0,0,0,2.52,7.4,7.6,7.6,0,0,0,7.272,2.071,6.487,6.487,0,0,0-3.758-2.869,4.518,4.518,0,0,1-3.176-3.145A25.21,25.21,0,0,0,123.041,55.515Zm13.919,6.572c3.514-1.647,5.621-6.01,4.1-9.217-.9,1.466-1.69,2.693-2.429,3.931-.318.542-.393,1.376-.829,1.674C136.386,59.457,136.779,60.727,136.96,62.087Zm-1.25-5.369,3.581-5.621a7.751,7.751,0,0,0-6.682,1.9c1.108,1.352,2.17,2.618,3.1,3.73Z" transform="translate(1912.517 5273.97)" fill="#e5d9d1"/>
      <path id="Trazado_424" data-name="Trazado 424" d="M124.2,50.077c1.494.927,2.929.04,4.4-.934a4.361,4.361,0,0,1,1.856-.555c3.345-.4,5.43,2.01,4.59,5.367a6.813,6.813,0,0,1-4.3,4.914,3.681,3.681,0,0,0-1.178.8,4.015,4.015,0,0,1-3.22,1.2,7.026,7.026,0,0,1-6.538-6.6C119.683,51.862,121.469,50.024,124.2,50.077Zm4.426,7.945.294-.234a4.758,4.758,0,0,0-1.532-4.648,4.324,4.324,0,0,0-4.675-1.156c.294.423.9.625,1.063,1.014A7.1,7.1,0,0,0,127.7,56.9C128.094,57.073,128.316,57.638,128.625,58.022Zm-6.772-5.061-.381.187a4.928,4.928,0,0,0,1.6,4.69,4.814,4.814,0,0,0,4.608,1.313,4.11,4.11,0,0,0-2.381-1.818,2.863,2.863,0,0,1-2.012-1.993A15.974,15.974,0,0,0,121.853,52.961Zm8.819,4.164c2.227-1.044,3.562-3.808,2.6-5.841-.573.929-1.071,1.706-1.539,2.491-.2.344-.249.872-.526,1.061C130.308,55.459,130.558,56.263,130.672,57.125Zm-.792-3.4,2.269-3.562a4.911,4.911,0,0,0-4.234,1.205c.7.857,1.375,1.659,1.965,2.364Z" transform="translate(1871.055 5277.365)" fill="#e5d9d1"/>
    </g>
    <g id="Grupo_576" data-name="Grupo 576" transform="translate(-1107.483 -75.218)">
      <path id="Trazado_422" data-name="Trazado 422" d="M150.85,131.24c-7.44-11.06-17.39-18.25-27.5-25.51-13.5-9.69-18-23.81-15.2-39.75,3.1-17.67,13.8-29.63,31.11-34.41,17.67-4.88,33.14.06,44.69,14.3,11.1,13.69,13.5,29.2,6.21,45.65a33,33,0,0,1-12.39,14.75C167.42,112.83,158.08,120.38,150.85,131.24Zm.66-11.54c2.9-2.76,6.23-6.34,10-9.41s8.33-5.54,12.11-8.77c3.46-3,7-6.21,9.37-10,9-14.29,5.44-34.27-7.66-46a36.79,36.79,0,0,0-47.2-1.67c-19.13,15-19.31,44.11-.5,57.59,8.05,5.79,15.78,12.05,23.88,18.26Z" transform="translate(1916.644 5167.257)" fill="#e5d9d1"/>
      <path id="Trazado_425" data-name="Trazado 425" d="M2051.631,5203.611l-18.347,16.054-5.963,22.016,5.963,19.264,13.3,14.219s15.595,12.843,17.429,13.76,11.467-3.211,11.467-3.211,13.76-10.091,15.136-12.384,9.632-11.925,11.008-14.677,8.256-12.843,7.8-16.971-10.55-27.062-10.55-27.062l-26.6-14.678Z" transform="translate(-0.383 -0.941)" fill="#e5d9d1"/>
      <text id="_2" data-name="2" transform="translate(2068 5258.558)" fill="#b46063" font-size="40" font-family="Gotham-Medium, Gotham" font-weight="500"><tspan x="-12.26" y="0">2</tspan></text>
    </g>
  </g>
</svg>
