<svg xmlns="http://www.w3.org/2000/svg" width="116.968" height="189.497" viewBox="0 0 116.968 189.497"><g transform="translate(-1357.516 -5121.503)"><g transform="translate(1351.234 5198.279)"><path d="M49.976-2.435c31.5,0,65.625,8.651,65.625,40.147s-9.037,72.574-40.534,72.574S-1.367,102.793-1.367,71.3,18.479-2.435,49.976-2.435Z" transform="translate(7.648 2.435)" fill="#b46063"/></g><g transform="translate(-651.486 -75.497)"><path d="M150.85,131.24c-7.44-11.06-17.39-18.25-27.5-25.51-13.5-9.69-18-23.81-15.2-39.75,3.1-17.67,13.8-29.63,31.11-34.41,17.67-4.88,33.14.06,44.69,14.3,11.1,13.69,13.5,29.2,6.21,45.65a33,33,0,0,1-12.39,14.75C167.42,112.83,158.08,120.38,150.85,131.24Zm.66-11.54c2.9-2.76,6.23-6.34,10-9.41s8.33-5.54,12.11-8.77c3.46-3,7-6.21,9.37-10,9-14.29,5.44-34.27-7.66-46a36.79,36.79,0,0,0-47.2-1.67c-19.13,15-19.31,44.11-.5,57.59,8.05,5.79,15.78,12.05,23.88,18.26Z" transform="translate(1916.644 5167.257)" fill="#e5d9d1"/><path d="M2051.631,5203.611l-18.347,16.054-5.963,22.016,5.963,19.264,13.3,14.219s15.595,12.843,17.429,13.76,11.467-3.211,11.467-3.211,13.76-10.091,15.136-12.384,9.632-11.925,11.008-14.677,8.256-12.843,7.8-16.971-10.55-27.062-10.55-27.062l-26.6-14.678Z" transform="translate(-0.383 -0.941)" fill="#e5d9d1"/><text transform="translate(2068 5258.558)" fill="#b46063" font-size="40" font-family="Gotham-Bold, Gotham" font-weight="700"><tspan x="-12.42" y="0">3</tspan></text></g><g transform="translate(640.805 4892.893)"><path d="M781.873,336.763c1.168.287,2.345.54,3.5.866a27.161,27.161,0,0,1,11.374,6.69c11.145,10.571,15.292,29.241,9.644,43.515a25.088,25.088,0,0,1-9.012,11.795c-7.543,5.22-17.236,4.928-25.272-1.4a15.769,15.769,0,0,0-9.3-3.273c-2.071-.144-4.147-.325-6.193-.663a4.441,4.441,0,0,1-2.34-1.147c-7.762-8-9.61-17.644-7.956-28.34.549-3.547,1.821-6.34,5.28-7.816a19.233,19.233,0,0,0,1.748-1.117,20.673,20.673,0,0,0,8.464-8.436,19.783,19.783,0,0,1,14.949-10.4,2.42,2.42,0,0,0,.608-.284ZM807,374.045c-.175-1.95-.237-3.919-.546-5.849-1.536-9.6-5.485-17.93-13.161-24.184a20.894,20.894,0,0,0-12.773-5.139c-8.746-.225-14.626,4.352-18.343,11.831-4.62,9.295-4.419,18.947-1.173,28.6,2.649,7.88,7.119,14.484,14.4,18.822,9.743,5.8,20.362,3.317,26.569-6.154C805.538,386.541,806.877,380.472,807,374.045Zm-49.027-18.788c-2.873,1.882-5.525,3.6-8.147,5.363a1.834,1.834,0,0,0-.605.994c-2.64,9.589-2.037,18.71,3.856,27.1,1.661,2.366,3.482,4.272,6.706,3.974a12.657,12.657,0,0,1,2.235.217c1.378.124,2.758.235,4.338.368C757.028,379.17,755.847,373.816,757.977,355.257Z" transform="translate(0 0)" fill="#e5d9d1" stroke="#e5d9d1" stroke-width="0.5"/><path d="M760.014,374.415c-2.13,18.559-.949,23.913,8.382,38.017-1.58-.133-2.96-.244-4.338-.368a12.651,12.651,0,0,0-2.235-.217c-3.223.3-5.044-1.608-6.706-3.974-5.893-8.392-6.5-17.513-3.856-27.1a1.835,1.835,0,0,1,.605-.994C754.488,378.015,757.14,376.3,760.014,374.415Z" transform="translate(-2.037 -19.158)" fill="#e5d9d1" stroke="#e5d9d1" stroke-width="0.5"/><g transform="translate(785.583 343.808)"><path d="M831.4,352.761c-1.271-.583-2.546-1.165-3.855-1.653-.136-.051-.667.484-.708.789a1.178,1.178,0,0,0,.488.973,14.758,14.758,0,0,0,2.982,1.269c.392.107.94-.354,1.41-.554C831.525,353.066,831.509,352.812,831.4,352.761Z" transform="translate(-826.833 -351.105)" fill="#e5d9d1" stroke="#e5d9d1" stroke-width="0.5"/><path d="M848.21,370.7c.2.432,1.011.582,1.538.862.082-.555.4-1.211.21-1.65a29.4,29.4,0,0,0-7.77-10.85,14.311,14.311,0,0,0-1.2-.83c-.353.293-.882.534-.879.77a1.944,1.944,0,0,0,.516,1.319A30.819,30.819,0,0,1,848.21,370.7Z" transform="translate(-833.589 -354.734)" fill="#e5d9d1" stroke="#e5d9d1" stroke-width="0.5"/><path d="M850.532,394.207c-.1-.461-.865-.779-1.32-1.163-.191.524-.591,1.07-.538,1.569.254,2.4.631,4.793.964,7.188l-.239.026c0,.693.038,1.387-.009,2.076a23.623,23.623,0,0,1-.3,2.579c-1.281,7.085-4.167,13.059-11.167,16.234-.418.19-.587.929-.871,1.413.552.135,1.2.53,1.639.363a16.555,16.555,0,0,0,7.666-5.988C851.629,411.085,852.4,402.852,850.532,394.207Z" transform="translate(-832.035 -372.444)" fill="#e5d9d1" stroke="#e5d9d1" stroke-width="0.5"/></g></g></g></svg>